<?xml version="1.0" standalone="no"?><svg xmlns="http://www.w3.org/2000/svg" viewBox="0 0 1440 320"><path fill="#0099ff" fill-opacity="1" d="M0,256L30,229.3C60,203,120,149,180,160C240,171,300,245,360,245.3C420,245,480,171,540,144C600,117,660,139,720,154.7C780,171,840,181,900,160C960,139,1020,85,1080,85.3C1140,85,1200,139,1260,176C1320,213,1380,235,1410,245.3L1440,256L1440,0L1410,0C1380,0,1320,0,1260,0C1200,0,1140,0,1080,0C1020,0,960,0,900,0C840,0,780,0,720,0C660,0,600,0,540,0C480,0,420,0,360,0C300,0,240,0,180,0C120,0,60,0,30,0L0,0Z"></path></svg>